<?xml version="1.0" standalone="no"?>
<!DOCTYPE svg PUBLIC "-//W3C//DTD SVG 20010904//EN"
 "http://www.w3.org/TR/2001/REC-SVG-20010904/DTD/svg10.dtd">
<svg version="1.0" xmlns="http://www.w3.org/2000/svg"
 width="92.000000pt" height="92.000000pt" viewBox="0 0 92.000000 92.000000"
 preserveAspectRatio="xMidYMid meet">

<g transform="translate(0.000000,92.000000) scale(0.100000,-0.100000)"
fill="#000000" stroke="none">
<path d="M665 748 c-30 -17 -36 -29 -33 -71 2 -33 -4 -43 -52 -92 -30 -30 -50
-55 -44 -55 5 0 32 22 59 50 45 46 52 49 86 44 29 -5 41 -2 58 15 30 30 27 75
-5 100 -30 24 -41 25 -69 9z m69 -24 c22 -21 20 -50 -4 -74 -24 -24 -38 -25
-68 -4 -41 29 -19 94 33 94 13 0 31 -7 39 -16z"/>
<path d="M176 728 c-22 -31 -20 -62 6 -84 l22 -19 -17 25 c-9 13 -17 32 -17
42 0 47 76 66 104 26 9 -12 16 -17 16 -11 0 43 -88 59 -114 21z"/>
<path d="M268 655 c-10 -13 -26 -26 -35 -28 -10 -2 -4 -3 12 -1 26 4 39 -4 80
-46 27 -27 54 -50 59 -50 6 0 -14 25 -44 55 -36 37 -54 63 -52 75 4 26 1 25
-20 -5z"/>
<path d="M622 483 c-1 -42 2 -73 8 -73 5 0 7 6 4 14 -9 23 12 27 31 6 28 -31
38 -23 14 10 -22 29 -22 30 -4 50 10 11 13 20 7 20 -6 0 -16 -9 -22 -20 -17
-32 -29 -24 -33 23 -2 28 -4 17 -5 -30z"/>
<path d="M415 505 c-30 -30 -31 -54 -4 -89 38 -48 119 -22 119 39 0 31 -41 75
-70 75 -11 0 -32 -11 -45 -25z m92 -24 c14 -29 4 -55 -28 -71 -46 -25 -94 51
-57 88 21 21 71 10 85 -17z"/>
<path d="M80 502 c0 -5 10 -8 21 -8 34 1 33 -21 -1 -27 -24 -5 -30 -12 -30
-32 0 -23 3 -25 35 -23 l36 2 -3 46 c-3 41 -6 45 -30 48 -16 2 -28 -1 -28 -6z
m50 -57 c0 -21 -28 -31 -43 -16 -9 9 -8 14 3 21 22 14 40 12 40 -5z"/>
<path d="M230 504 c0 -4 8 -29 18 -56 16 -47 16 -50 0 -62 -22 -16 -23 -27 -3
-20 18 7 27 22 54 93 12 28 16 51 11 51 -5 0 -15 -19 -22 -41 l-12 -42 -18 42
c-15 36 -28 52 -28 35z"/>
<path d="M785 500 c-4 -7 2 -9 18 -5 17 5 26 2 30 -9 5 -11 1 -16 -13 -16 -25
0 -51 -27 -43 -46 3 -9 17 -14 39 -12 33 2 34 3 34 44 0 29 -5 44 -16 48 -23
9 -42 7 -49 -4z m53 -57 c-4 -22 -48 -31 -48 -10 0 19 10 27 32 27 13 0 18 -6
16 -17z"/>
<path d="M325 340 c-45 -45 -53 -49 -82 -44 -46 9 -83 -17 -83 -57 0 -41 15
-65 44 -73 54 -13 97 32 82 87 -4 17 6 33 46 74 29 29 50 55 47 58 -3 2 -27
-18 -54 -45z m-65 -70 c38 -38 18 -90 -35 -90 -54 0 -76 64 -33 94 30 21 44
20 68 -4z"/>
<path d="M580 335 c40 -40 54 -62 52 -78 -4 -20 -2 -20 18 6 25 32 52 35 80 7
34 -34 20 -80 -27 -95 -17 -4 -29 1 -48 19 -17 17 -25 20 -25 11 0 -24 55 -47
84 -35 50 18 59 68 20 106 -20 21 -31 25 -57 20 -29 -5 -38 -1 -82 44 -27 27
-54 50 -59 50 -6 0 14 -25 44 -55z"/>
</g>
</svg>
